# xmcd
#
# Track frame offsets: 
#        150
#        29902
#        45050
#        64535
#        86625
#        102117
#        128927
#        150545
#        175515
#        197337
#        207845
#        286212
#
# Disc length: 4176 seconds
#
# Revision: 7
# Processed by: cddbd v1.5PL3 Copyright (c) Steve Scherf et al.
# Submitted via: ExactAudioCopy v0.95a4
#
DISCID=94104e0c
DTITLE=Soft Ballet - Menopause [WPZL-30011&12] (Disc1)
DYEAR=2003
DGENRE=Vocal
TTITLE0=Nirvana
TTITLE1=Heleben Sahar
TTITLE2=Smashing The Sun
TTITLE3=Ascent (Die A Peaceful Death)
TTITLE4=Realize
TTITLE5=H158
TTITLE6=Hunting Hi-Times
TTITLE7=Your Web
TTITLE8=Bright My Way
TTITLE9=Incoherent And Confused (Full Of Bombast)
TTITLE10=Tsuchisugari
TTITLE11=Data
EXTD=
EXTT0=
EXTT1=
EXTT2=
EXTT3=
EXTT4=
EXTT5=
EXTT6=
EXTT7=
EXTT8=
EXTT9=
EXTT10=
EXTT11=Smashing The Sun (Video) (Director's Cut]\n
PLAYORDER=
